# xmcd
#
# Track frame offsets:
#	150
#	18197
#	28397
#	50346
#	58161
#	73876
#	97657
#	113786
#	130044
#	165803
#	182201
#
# Disc length: 2612 seconds
#
# Revision: 1
# Processed by: cddbd v1.4PL0 Copyright (c) Steve Scherf et al.
# Submitted via: audiograbber 1.80.04
#
DISCID=8b0a320b
DTITLE=Willie Nelson - Live Disc 1
DYEAR=1900
DGENRE=Country
TTITLE0=The Red  Headed Stranger
TTITLE1=On the Road Again
TTITLE2=City of New Orleans
TTITLE3=If You've Got the Money
TTITLE4=Whiskey River
TTITLE5=Till I Gain Control Again
TTITLE6=You Were Always on My Mind
TTITLE7=Stardust
TTITLE8=Medley: Time Slips Away/Crazy/Night Life
TTITLE9=Georgia on My Mind
TTITLE10=Blue Eyes Crying in the Rain
EXTD=
EXTT0=
EXTT1=
EXTT2=
EXTT3=
EXTT4=
EXTT5=
EXTT6=
EXTT7=
EXTT8=
EXTT9=
EXTT10=
PLAYORDER=
